<mxfile host="app.diagrams.net" modified="2024-07-21T16:25:08.162Z" agent="Mozilla/5.0 (Windows NT 10.0; Win64; x64) AppleWebKit/537.36 (KHTML, like Gecko) Chrome/126.0.0.0 Safari/537.36" version="24.7.1" etag="Jvw32KHsfCAIM4--aVuC" type="github">
  <diagram name="페이지-1" id="Tl9F6LGAFDgoZwaDYWDN">
    <mxGraphModel>
      <root>
        <mxCell id="0" />
        <mxCell id="1" parent="0" />
      </root>
    </mxGraphModel>
  </diagram>
</mxfile>
